<?xml version="1.0" encoding="iso-8859-1"?>
<!-- Generator: Adobe Illustrator 19.0.0, SVG Export Plug-In . SVG Version: 6.00 Build 0)  -->
<svg version="1.1" id="Capa_1" xmlns="http://www.w3.org/2000/svg" xmlns:xlink="http://www.w3.org/1999/xlink" x="0px" y="0px"
	 viewBox="0 0 413.1 413.1" style="enable-background:new 0 0 413.1 413.1;" xml:space="preserve">
<path style="fill:#DC8744;" d="M92.028,400.3c-0.2,0-0.5,0-0.7-0.1c-1.9-0.4-3.1-2.3-2.7-4.1c28.6-136.8,57-217,75.7-260.3
	c20.5-47.3,34.2-61.9,34.7-62.5c1.3-1.4,3.6-1.4,4.9-0.1c1.4,1.3,1.4,3.5,0.1,4.9c-0.2,0.2-13.8,15-33.8,61.4
	c-18.5,42.9-46.5,122.5-74.9,258C95.128,399.2,93.628,400.3,92.028,400.3z"/>
<path style="fill:#F6C358;" d="M219.528,76.3c21-22,31.2-76.3,31.2-76.3s-42,11.3-60.4,53.8c-2,4.6-5.1,10.2-2,19.5
	C190.828,80.9,201.628,95.3,219.528,76.3z"/>
<path style="fill:#FCD462;" d="M250.728,0c0,0-10.2,54.3-31.2,76.3c-12.3,12.8-21,10.8-26.1,5.6L250.728,0z"/>
<path style="fill:#F6C358;" d="M186.728,91.7c0-28.7-28.7-72.2-28.7-72.2s-21.5,35.3-6.1,76.3c1.5,4.6,3.6,10.2,11.3,14.8
	C170.328,114.2,186.728,116.8,186.728,91.7z"/>
<path style="fill:#FCD462;" d="M158.128,19c0,0,28.7,44,28.7,72.2c0,16.4-7.2,21-13.8,21L158.128,19z"/>
<path style="fill:#F6C358;" d="M205.228,132.1c26.6-10.8,56.8-53.2,56.8-53.2s-41-6.7-73.2,22.5c-3.6,3.1-8.2,7.2-9.7,15.9
	C178.528,125,182.128,141.4,205.228,132.1z"/>
<path style="fill:#FCD462;" d="M262.028,78.9c0,0-30.2,42.5-56.8,53.2c-15.4,6.1-22,1-24.6-5.1L262.028,78.9z"/>
<path style="fill:#F6C358;" d="M160.128,158.8c0-28.7-28.7-72.2-28.7-72.2s-21.5,35.3-6.1,76.3c1.5,4.6,3.6,10.2,11.3,14.8
	C143.728,181.3,160.128,183.8,160.128,158.8z"/>
<path style="fill:#FCD462;" d="M131.428,86.6c0,0,28.7,44,28.7,72.2c0,16.4-7.2,21-13.8,21L131.428,86.6z"/>
<path style="fill:#F6C358;" d="M184.228,185.4c26.6-9.7,58.9-51.2,58.9-51.2s-40.4-8.2-73.7,20c-3.6,3.1-8.7,6.7-10.2,15.9
	C157.528,177.2,160.628,194.1,184.228,185.4z"/>
<path style="fill:#FCD462;" d="M243.128,134.2c0,0-31.7,41.5-58.9,51.2c-15.4,5.6-22,0.5-24.6-6.1L243.128,134.2z"/>
<path style="fill:#F6C358;" d="M139.128,215.1c0-28.7-28.7-72.2-28.7-72.2s-21.5,35.3-6.1,76.3c1.5,4.6,3.6,10.2,11.3,14.8
	C122.728,237.6,139.128,240.2,139.128,215.1z"/>
<path style="fill:#FCD462;" d="M110.428,142.9c0,0,28.7,44,28.7,72.2c0,16.4-7.2,21-13.8,21L110.428,142.9z"/>
<path style="fill:#F6C358;" d="M163.228,243.2c27.6-6.7,63.5-45.1,63.5-45.1s-39.4-12.3-75.3,12.3c-4.1,2.6-9.2,5.6-11.8,14.3
	C137.628,232.5,138.628,249.4,163.228,243.2z"/>
<path style="fill:#FCD462;" d="M226.728,198.2c0,0-35.8,37.9-63.5,45.1c-15.9,4.1-22-2-23.6-8.7L226.728,198.2z"/>
<path style="fill:#F6C358;" d="M120.228,281.6c0-28.7-28.7-72.2-28.7-72.2s-21.5,35.3-6.1,76.3c1.5,4.6,3.6,10.2,11.3,14.8
	C103.828,304.2,120.228,306.7,120.228,281.6z"/>
<path style="fill:#FCD462;" d="M91.528,209.4c0,0,28.7,44,28.7,72.2c0,16.4-7.2,21-13.8,21L91.528,209.4z"/>
<path style="fill:#F6C358;" d="M145.328,306.7c27.1-9.2,59.4-50.2,59.4-50.2s-40.4-8.7-74.2,18.9c-3.6,3.1-8.7,6.7-10.2,15.4
	C118.628,298,121.728,314.9,145.328,306.7z"/>
<path style="fill:#FCD462;" d="M204.728,256c0,0-32.3,41-59.4,50.2c-15.9,5.6-22,0-24.6-6.7L204.728,256z"/>
<g>
</g>
<g>
</g>
<g>
</g>
<g>
</g>
<g>
</g>
<g>
</g>
<g>
</g>
<g>
</g>
<g>
</g>
<g>
</g>
<g>
</g>
<g>
</g>
<g>
</g>
<g>
</g>
<g>
</g>
</svg>
